<?xml version="1.0" encoding="utf-8"?>
<!-- Generator: Adobe Illustrator 24.3.0, SVG Export Plug-In . SVG Version: 6.00 Build 0)  -->
<svg version="1.1" id="Ebene_1" xmlns="http://www.w3.org/2000/svg" xmlns:xlink="http://www.w3.org/1999/xlink" x="0px" y="0px"
	 viewBox="0 0 283.5 63" style="enable-background:new 0 0 283.5 63;" xml:space="preserve">
<style type="text/css">
	.st0{fill:#003463;}
	.st1{fill:#618097;}
</style>
<g>
	<g>
		<g>
			<g>
				<path class="st0" d="M121.2,54.9v-2.7l7.6-10.6h-7v-3.3h11.9v2.5l-7.7,10.8h8.2v3.3H121.2z"/>
				<path class="st0" d="M137.9,54.9V38.3h10.9v3.1h-6.9v3.7h6.4v2.9h-6.4v3.8h7.5v3.1H137.9z"/>
				<path class="st0" d="M161.2,55.2c-6.1,0-9.2-3-9.2-8.4c0-5.8,3.1-8.6,9.1-8.6c2.5,0,3.9,0.4,5.2,1l-1.1,2.9
					c-1.6-0.4-2.2-0.5-4.1-0.6c-3,0-5.1,1.6-5.1,5.1c0,3.5,2.2,5.3,5.6,5.3c1.6,0,2.6-0.1,3.9-0.5l0.8,3
					C164.7,55,163.4,55.2,161.2,55.2z"/>
				<path class="st0" d="M180.6,54.9v-6.8h-7v6.8h-4V38.4h4v6.7h7v-6.7h4v16.6H180.6z"/>
				<path class="st0" d="M204.6,55.2c-5.5,0-9.1-2.7-9.1-8.4c0-6,3.3-8.6,9.3-8.6c2.4,0,3.7,0.4,5,1l-1.1,2.9
					c-1.6-0.4-2.3-0.6-4-0.6c-3,0-5.2,1.4-5.2,5.1c0,3.7,2.4,5.3,5.5,5.3c0.4,0,0.7,0,1.1,0v-4.1h4v6.5
					C208.2,54.9,206.6,55.2,204.6,55.2z"/>
				<path class="st0" d="M228.6,55.3c-3.2-0.2-4.7-1.9-6.5-3.9l-1.9-2.2c-0.3,0-0.6,0-0.9,0h-1.2v5.7h-4V38.3h6.5
					c3.7,0,6.4,1.7,6.4,5.4c0,1.9-0.9,3.5-2.7,4.5l1.7,1.8c0.9,1,1.7,1.7,3.5,2.1L228.6,55.3z M220,41.5h-1.9v4.9h1.4
					c2.4,0,3.4-1,3.4-2.6C222.9,42.2,222.2,41.5,220,41.5z"/>
				<path class="st0" d="M239.4,55.3c-5.5,0-8.4-3.4-8.4-8.7c0-5.6,3.4-8.6,8.8-8.6c5.7,0,8.3,3.5,8.3,8.7
					C248.1,52.2,245,55.3,239.4,55.3z M239.6,41.2c-3.3,0-4.6,2.3-4.6,5.4c0,3,1.3,5.6,4.4,5.6c3.4,0,4.7-2.4,4.7-5.5
					C244.1,43.5,242.8,41.2,239.6,41.2z"/>
				<path class="st0" d="M259,55.3c-3.8,0-7.7-1.2-7.7-6.6V38.3h4v10.2c0,2.5,1.2,3.4,3.7,3.4c2.5,0,3.7-0.9,3.7-3.9v-9.7h3.9v9.8
					C266.6,53.9,262.7,55.3,259,55.3z"/>
				<path class="st0" d="M275.8,50.2h-1.2v4.7h-4V38.3h6.5c3.7,0,6.4,2.2,6.4,5.9C283.5,47.5,280.8,50.2,275.8,50.2z M276.5,41.5
					h-1.9v5.7h1.4c2.5,0,3.4-1.3,3.4-2.8C279.4,42.7,278.7,41.5,276.5,41.5z"/>
			</g>
		</g>
	</g>
	<g>
		<g>
			<path class="st1" d="M32.3,10.1c0,1.1,0,1.4,0,2.4c-1.1,0-1.4,0-2.4,0c0-1.1,0-1.4,0-2.4C30.9,10.1,31.2,10.1,32.3,10.1z"/>
			<path class="st1" d="M52.9,9.8c0,1.2,0,1.7,0,2.9c-1.2,0-1.7,0-2.9,0c0-1.2,0-1.7,0-2.9C51.2,9.8,51.7,9.8,52.9,9.8z"/>
			<path class="st1" d="M64.5,8.4c0,0.8,0,5,0,5.8c-0.8,0-5,0-5.8,0c0-0.8,0-5,0-5.8C59.6,8.4,63.8,8.4,64.5,8.4z"/>
			<path class="st1" d="M62.8,0c0,1,0,1.3,0,2.3c-1,0-1.3,0-2.3,0c0-1,0-1.3,0-2.3C61.5,0,61.8,0,62.8,0z"/>
			<path class="st1" d="M73.3,9.8c0,1.2,0,1.7,0,2.9c-1.2,0-1.7,0-2.9,0c0-1.2,0-1.7,0-2.9C71.6,9.8,72.1,9.8,73.3,9.8z"/>
			<path class="st1" d="M72.4,0.6c0,0.6,0,0.6,0,1.2c-0.6,0-0.6,0-1.2,0c0-0.6,0-0.6,0-1.2C71.8,0.6,71.9,0.6,72.4,0.6z"/>
			<rect x="27.8" y="18.1" class="st1" width="6.6" height="6.6"/>
			<path class="st1" d="M42.5,20.2c0,1.1,0,1.4,0,2.4c-1.1,0-1.4,0-2.4,0c0-1.1,0-1.4,0-2.4C41.1,20.2,41.4,20.2,42.5,20.2z"/>
			<rect x="48.1" y="18" class="st1" width="6.8" height="6.8"/>
			<rect x="57.5" y="17.3" class="st1" width="8.3" height="8.3"/>
			<path class="st1" d="M74.8,18.5c0,0.7,0,5.2,0,5.9c-0.7,0-5.2,0-5.9,0c0-0.7,0-5.2,0-5.9C69.6,18.5,74.1,18.5,74.8,18.5z"/>
			<rect x="26.6" y="27.1" class="st1" width="8.9" height="8.9"/>
			<rect x="37.9" y="28.2" class="st1" width="6.8" height="6.8"/>
			<rect x="47.5" y="27.6" class="st1" width="8" height="8"/>
			<path class="st1" d="M64.3,28.9c0,1,0,4.2,0,5.3c-1,0-4.2,0-5.3,0c0-1,0-4.2,0-5.3C60.1,28.9,63.3,28.9,64.3,28.9z"/>
			<path class="st1" d="M73.3,30.1c0,1.2,0,1.7,0,2.9c-1.2,0-1.7,0-2.9,0c0-1.2,0-1.7,0-2.9C71.6,30.1,72.1,30.1,73.3,30.1z"/>
			<rect x="27.7" y="38.3" class="st1" width="6.8" height="6.8"/>
			<path class="st1" d="M54.5,38.7c0,0.6,0,5.4,0,6c-0.6,0-5.4,0-6,0c0-0.6,0-5.4,0-6C49.1,38.7,53.8,38.7,54.5,38.7z"/>
			<path class="st1" d="M63.1,40.3c0,1.2,0,1.7,0,2.9c-1.2,0-1.7,0-2.9,0c0-1.2,0-1.7,0-2.9C61.4,40.3,61.9,40.3,63.1,40.3z"/>
			<path class="st1" d="M32.7,50.3c0,1.3,0,2,0,3.3c-1.3,0-2,0-3.3,0c0-1.3,0-2,0-3.3C30.7,50.3,31.5,50.3,32.7,50.3z"/>
			<path class="st1" d="M44.3,48.9c0,0.6,0,5.4,0,6c-0.6,0-5.4,0-6,0c0-0.6,0-5.4,0-6C38.9,48.9,43.7,48.9,44.3,48.9z"/>
			<path class="st1" d="M53.3,50.1c0,1.3,0,2.4,0,3.7c-1.3,0-2.4,0-3.7,0c0-1.3,0-2.4,0-3.7C50.9,50.1,52,50.1,53.3,50.1z"/>
			<path class="st1" d="M42.2,61.2c0,0.8,0,1,0,1.8c-0.8,0-1,0-1.8,0c0-0.8,0-1,0-1.8C41.2,61.2,41.3,61.2,42.2,61.2z"/>
			<path class="st1" d="M11.4,20.8c0,0.6,0,0.6,0,1.2c-0.6,0-0.6,0-1.2,0c0-0.6,0-0.6,0-1.2C10.8,20.8,10.8,20.8,11.4,20.8z"/>
			<path class="st1" d="M22.4,20c0,1.2,0,1.7,0,2.9c-1.2,0-1.7,0-2.9,0c0-1.2,0-1.7,0-2.9C20.7,20,21.2,20,22.4,20z"/>
			<path class="st1" d="M1.2,31c0,0.6,0,0.6,0,1.2c-0.6,0-0.6,0-1.2,0c0-0.6,0-0.6,0-1.2C0.6,31,0.6,31,1.2,31z"/>
			<path class="st1" d="M12.2,30.1c0,1.2,0,1.7,0,2.9c-1.2,0-1.7,0-2.9,0c0-1.2,0-1.7,0-2.9C10.5,30.1,11,30.1,12.2,30.1z"/>
			<path class="st1" d="M23.9,28.7c0,0.8,0,5,0,5.8c-0.8,0-5,0-5.8,0c0-0.8,0-5,0-5.8C18.9,28.7,23.1,28.7,23.9,28.7z"/>
			<path class="st1" d="M11.7,40.8c0,0.8,0,1,0,1.8c-0.8,0-1,0-1.8,0c0-0.8,0-1,0-1.8C10.7,40.8,10.8,40.8,11.7,40.8z"/>
			<path class="st1" d="M23.3,39.4c0,1.2,0,3.4,0,4.6c-1.2,0-3.4,0-4.7,0c0-1.2,0-3.4,0-4.6C19.9,39.4,22.1,39.4,23.3,39.4z"/>
			<path class="st1" d="M21.9,51c0,0.8,0,1,0,1.8c-0.8,0-1,0-1.8,0c0-0.8,0-1,0-1.8C20.9,51,21,51,21.9,51z"/>
			<path class="st1" d="M113.5,20.5c0,0.8,0,1,0,1.8c-0.8,0-1,0-1.8,0c0-0.8,0-1,0-1.8C112.5,20.5,112.6,20.5,113.5,20.5z"/>
			<path class="st1" d="M82.6,10.7c0,0.6,0,0.6,0,1.2c-0.6,0-0.6,0-1.2,0c0-0.6,0-0.6,0-1.2C82,10.7,82.1,10.7,82.6,10.7z"/>
			<path class="st1" d="M103.1,10.6c0,0.6,0,0.7,0,1.3c-0.6,0-0.7,0-1.3,0c0-0.6,0-0.7,0-1.3C102.4,10.6,102.5,10.6,103.1,10.6z"/>
			<path class="st1" d="M84.2,19.3c0,1.3,0,3,0,4.3c-1.3,0-3,0-4.3,0c0-1.3,0-3,0-4.3C81.2,19.3,82.9,19.3,84.2,19.3z"/>
			<path class="st1" d="M93.1,20.5c0,0.8,0,1,0,1.8c-0.8,0-1,0-1.8,0c0-0.8,0-1,0-1.8C92.2,20.5,92.3,20.5,93.1,20.5z"/>
			<path class="st1" d="M103.9,20c0,1.2,0,1.7,0,2.9c-1.2,0-1.7,0-2.9,0c0-1.2,0-1.7,0-2.9C102.2,20,102.7,20,103.9,20z"/>
			<rect x="78.5" y="28" class="st1" width="7.1" height="7.1"/>
			<path class="st1" d="M95.1,28.8c0,0.9,0,4.8,0,5.6c-0.9,0-4.8,0-5.6,0c0-0.9,0-4.8,0-5.6C90.3,28.8,94.2,28.8,95.1,28.8z"/>
			<path class="st1" d="M104.3,29.7c0,1.3,0,2.4,0,3.7c-1.3,0-2.4,0-3.7,0c0-1.3,0-2.4,0-3.7C101.9,29.7,103,29.7,104.3,29.7z"/>
			<path class="st1" d="M83,40.8c0,0.8,0,1,0,1.8c-0.8,0-1,0-1.8,0c0-0.8,0-1,0-1.8C82,40.8,82.1,40.8,83,40.8z"/>
			<path class="st1" d="M93.9,40c0,1.3,0,2.1,0,3.4c-1.3,0-2.1,0-3.4,0c0-1.3,0-2.1,0-3.4C91.8,40,92.7,40,93.9,40z"/>
			<path class="st1" d="M103,41.1c0,0.6,0,0.6,0,1.2c-0.6,0-0.6,0-1.2,0c0-0.6,0-0.6,0-1.2C102.4,41.1,102.4,41.1,103,41.1z"/>
			<path class="st1" d="M92.8,51.3c0,0.6,0,0.6,0,1.2c-0.6,0-0.6,0-1.2,0c0-0.6,0-0.6,0-1.2C92.2,51.3,92.3,51.3,92.8,51.3z"/>
			<rect x="36.4" y="36.8" class="st1" width="9.8" height="9.8"/>
		</g>
	</g>
</g>
</svg>
