<?xml version="1.0" encoding="utf-8"?>
<!-- Generator: Adobe Illustrator 24.1.0, SVG Export Plug-In . SVG Version: 6.00 Build 0)  -->
<svg version="1.0" id="Ebene_1" xmlns="http://www.w3.org/2000/svg" xmlns:xlink="http://www.w3.org/1999/xlink" x="0px" y="0px"
	 width="316.741px" height="96.248px" viewBox="0 0 316.741 96.248" enable-background="new 0 0 316.741 96.248"
	 xml:space="preserve">
<g>
	<g>
		<g>
			<g>
				<path fill="#003463" d="M137.873,71.586v-2.677l7.64-10.627h-7.027v-3.315h11.936v2.537l-7.731,10.762h8.225v3.32H137.873z"/>
				<path fill="#003463" d="M154.511,71.586V54.967h10.93v3.127h-6.931v3.689h6.415v2.912h-6.415v3.76h7.471v3.131H154.511z"/>
				<path fill="#003463" d="M177.848,71.821c-6.083,0-9.206-2.982-9.206-8.442c0-5.782,3.074-8.598,9.116-8.598
					c2.47,0,3.923,0.396,5.168,0.962l-1.058,2.89c-1.574-0.422-2.232-0.539-4.066-0.562c-3.006-0.047-5.098,1.598-5.098,5.074
					c0,3.479,2.208,5.334,5.569,5.334c1.622,0,2.585-0.142,3.852-0.469l0.847,3.013C181.373,71.611,179.989,71.821,177.848,71.821z"
					/>
				<path fill="#003463" d="M197.259,71.586v-6.842h-7.045v6.842h-3.997V54.99h3.997v6.722h7.045V54.99h3.995v16.596H197.259z"/>
				<path fill="#003463" d="M221.239,71.821c-5.518,0-9.115-2.678-9.115-8.442c0-6.015,3.268-8.598,9.304-8.598
					c2.35,0,3.666,0.419,4.986,0.962l-1.061,2.89c-1.576-0.399-2.305-0.562-3.994-0.562c-2.963,0-5.173,1.407-5.173,5.074
					c0,3.666,2.444,5.334,5.476,5.334c0.377,0,0.733-0.023,1.058-0.023v-4.091h3.995v6.492
					C224.838,71.586,223.26,71.821,221.239,71.821z"/>
				<path fill="#003463" d="M245.223,71.914c-3.242-0.164-4.742-1.875-6.48-3.904l-1.883-2.187
					c-0.281,0.025-0.585,0.025-0.892,0.025h-1.219v5.737h-4.02V54.967h6.462c3.737,0,6.416,1.717,6.416,5.429
					c0,1.855-0.893,3.479-2.679,4.488l1.693,1.833c0.913,0.987,1.682,1.707,3.49,2.122L245.223,71.914z M236.676,58.115h-1.927
					v4.936h1.361c2.376,0,3.385-0.987,3.385-2.561C239.495,58.823,238.812,58.115,236.676,58.115z"/>
				<path fill="#003463" d="M256.03,71.944c-5.483,0-8.356-3.372-8.356-8.706c0-5.616,3.449-8.623,8.779-8.623
					c5.683,0,8.312,3.479,8.312,8.671C264.767,68.815,261.606,71.944,256.03,71.944z M256.255,57.813
					c-3.318,0-4.602,2.347-4.602,5.401c0,3.031,1.262,5.582,4.445,5.582c3.447,0,4.663-2.433,4.663-5.533
					C260.762,60.16,259.417,57.813,256.255,57.813z"/>
				<path fill="#003463" d="M275.59,71.893c-3.833,0-7.731-1.225-7.731-6.61V54.967h4.043v10.176c0,2.538,1.152,3.406,3.688,3.406
					c2.519,0,3.69-0.938,3.69-3.898v-9.684h3.927v9.752C283.206,70.532,279.303,71.893,275.59,71.893z"/>
				<path fill="#003463" d="M292.471,66.881h-1.229v4.705h-4.016V54.967h6.462c3.735,0,6.414,2.186,6.414,5.898
					C300.102,64.134,297.424,66.881,292.471,66.881z M293.171,58.094h-1.929v5.709h1.365c2.491,0,3.383-1.292,3.383-2.843
					C295.99,59.29,295.311,58.094,293.171,58.094z"/>
			</g>
		</g>
	</g>
	<g>
		<g>
			<path fill="#618097" d="M48.944,26.72c0,1.056,0,1.362,0,2.416c-1.06,0-1.373,0-2.435,0c0-1.054,0-1.36,0-2.416
				C47.572,26.72,47.885,26.72,48.944,26.72z"/>
			<path fill="#618097" d="M69.559,26.473c0,1.185,0,1.727,0,2.912c-1.188,0-1.726,0-2.913,0c0-1.186,0-1.727,0-2.912
				C67.834,26.473,68.371,26.473,69.559,26.473z"/>
			<path fill="#618097" d="M81.181,25.042c0,0.785,0,4.984,0,5.772c-0.788,0-4.993,0-5.778,0c0-0.788,0-4.988,0-5.772
				C76.188,25.042,80.394,25.042,81.181,25.042z"/>
			<path fill="#618097" d="M79.438,16.638c0,1.015,0,1.279,0,2.296c-1.015,0-1.277,0-2.294,0c0-1.017,0-1.281,0-2.296
				C78.161,16.638,78.422,16.638,79.438,16.638z"/>
			<path fill="#618097" d="M89.938,26.473c0,1.185,0,1.727,0,2.912c-1.188,0-1.727,0-2.915,0c0-1.186,0-1.727,0-2.912
				C88.211,26.473,88.75,26.473,89.938,26.473z"/>
			<path fill="#618097" d="M89.066,17.199c0,0.57,0,0.604,0,1.177c-0.569,0-0.604,0-1.172,0c0-0.573,0-0.607,0-1.177
				C88.463,17.199,88.497,17.199,89.066,17.199z"/>
			<rect x="44.434" y="34.788" fill="#618097" width="6.587" height="6.566"/>
			<path fill="#618097" d="M59.121,36.865c0,1.052,0,1.359,0,2.415c-1.053,0-1.36,0-2.419,0c0-1.056,0-1.363,0-2.415
				C57.761,36.865,58.068,36.865,59.121,36.865z"/>
			<rect x="64.718" y="34.687" fill="#618097" width="6.769" height="6.769"/>
			<rect x="74.158" y="33.94" fill="#618097" width="8.264" height="8.261"/>
			<path fill="#618097" d="M91.431,35.121c0,0.711,0,5.189,0,5.9c-0.712,0-5.189,0-5.9,0c0-0.712,0-5.189,0-5.9
				C86.241,35.121,90.719,35.121,91.431,35.121z"/>
			<rect x="43.277" y="43.771" fill="#618097" width="8.903" height="8.887"/>
			<rect x="54.529" y="44.829" fill="#618097" width="6.772" height="6.771"/>
			<rect x="64.097" y="44.206" fill="#618097" width="8.011" height="8.018"/>
			<path fill="#618097" d="M80.933,45.577c0,1.034,0,4.243,0,5.277c-1.036,0-4.245,0-5.282,0c0-1.034,0-4.243,0-5.277
				C76.688,45.577,79.896,45.577,80.933,45.577z"/>
			<path fill="#618097" d="M89.938,46.755c0,1.188,0,1.729,0,2.92c-1.188,0-1.727,0-2.915,0c0-1.191,0-1.732,0-2.92
				C88.211,46.755,88.75,46.755,89.938,46.755z"/>
			<rect x="44.333" y="54.975" fill="#618097" width="6.791" height="6.765"/>
			<path fill="#618097" d="M71.112,55.349c0,0.625,0,5.389,0,6.018c-0.624,0-5.393,0-6.019,0c0-0.629,0-5.393,0-6.018
				C65.719,55.349,70.488,55.349,71.112,55.349z"/>
			<path fill="#618097" d="M79.752,56.902c0,1.186,0,1.724,0,2.912c-1.192,0-1.73,0-2.918,0c0-1.188,0-1.726,0-2.912
				C78.021,56.902,78.56,56.902,79.752,56.902z"/>
			<path fill="#618097" d="M49.382,66.917c0,1.258,0,2.039,0,3.294c-1.262,0-2.047,0-3.308,0c0-1.255,0-2.036,0-3.294
				C47.335,66.917,48.12,66.917,49.382,66.917z"/>
			<path fill="#618097" d="M60.927,65.548c0,0.629,0,5.402,0,6.032c-0.628,0-5.398,0-6.025,0c0-0.63,0-5.403,0-6.032
				C55.528,65.548,60.298,65.548,60.927,65.548z"/>
			<path fill="#618097" d="M69.931,66.73c0,1.297,0,2.374,0,3.669c-1.295,0-2.364,0-3.657,0c0-1.295,0-2.372,0-3.669
				C67.567,66.73,68.636,66.73,69.931,66.73z"/>
			<path fill="#618097" d="M58.812,77.813c0,0.832,0,0.962,0,1.797c-0.834,0-0.961,0-1.796,0c0-0.835,0-0.965,0-1.797
				C57.851,77.813,57.978,77.813,58.812,77.813z"/>
			<path fill="#618097" d="M28,37.485c0,0.57,0,0.604,0,1.172c-0.567,0-0.603,0-1.17,0c0-0.568,0-0.603,0-1.172
				C27.396,37.485,27.432,37.485,28,37.485z"/>
			<path fill="#618097" d="M39.061,36.615c0,1.186,0,1.73,0,2.914c-1.188,0-1.727,0-2.917,0c0-1.183,0-1.728,0-2.914
				C37.334,36.615,37.874,36.615,39.061,36.615z"/>
			<path fill="#618097" d="M17.812,47.627c0,0.57,0,0.602,0,1.172c-0.57,0-0.603,0-1.174,0c0-0.57,0-0.603,0-1.172
				C17.209,47.627,17.243,47.627,17.812,47.627z"/>
			<path fill="#618097" d="M28.868,46.755c0,1.188,0,1.729,0,2.92c-1.184,0-1.724,0-2.91,0c0-1.191,0-1.732,0-2.92
				C27.144,46.755,27.684,46.755,28.868,46.755z"/>
			<path fill="#618097" d="M40.492,45.326c0,0.786,0,4.994,0,5.776c-0.788,0-4.992,0-5.778,0c0-0.782,0-4.99,0-5.776
				C35.5,45.326,39.704,45.326,40.492,45.326z"/>
			<path fill="#618097" d="M28.31,57.462c0,0.831,0,0.958,0,1.789c-0.834,0-0.959,0-1.792,0c0-0.831,0-0.958,0-1.789
				C27.351,57.462,27.476,57.462,28.31,57.462z"/>
			<path fill="#618097" d="M39.932,56.032c0,1.223,0,3.422,0,4.648c-1.228,0-3.429,0-4.658,0c0-1.226,0-3.426,0-4.648
				C36.502,56.032,38.704,56.032,39.932,56.032z"/>
			<path fill="#618097" d="M38.501,67.663c0,0.831,0,0.96,0,1.803c-0.835,0-0.961,0-1.798,0c0-0.843,0-0.972,0-1.803
				C37.54,67.663,37.666,67.663,38.501,67.663z"/>
			<path fill="#618097" d="M130.101,37.176c0,0.833,0,0.96,0,1.794c-0.842,0-0.972,0-1.812,0c0-0.834,0-0.961,0-1.794
				C129.129,37.176,129.259,37.176,130.101,37.176z"/>
			<path fill="#618097" d="M99.278,27.343c0,0.567,0,0.604,0,1.172c-0.568,0-0.604,0-1.173,0c0-0.568,0-0.604,0-1.172
				C98.674,27.343,98.71,27.343,99.278,27.343z"/>
			<path fill="#618097" d="M119.716,27.282c0,0.624,0,0.671,0,1.294c-0.622,0-0.672,0-1.299,0c0-0.623,0-0.67,0-1.294
				C119.044,27.282,119.094,27.282,119.716,27.282z"/>
			<path fill="#618097" d="M100.832,35.931c0,1.284,0,2.999,0,4.281c-1.282,0-2.998,0-4.282,0c0-1.283,0-2.998,0-4.281
				C97.834,35.931,99.55,35.931,100.832,35.931z"/>
			<path fill="#618097" d="M109.776,37.176c0,0.833,0,0.96,0,1.794c-0.832,0-0.958,0-1.792,0c0-0.834,0-0.961,0-1.794
				C108.817,37.176,108.944,37.176,109.776,37.176z"/>
			<path fill="#618097" d="M120.525,36.615c0,1.186,0,1.73,0,2.914c-1.188,0-1.729,0-2.915,0c0-1.183,0-1.728,0-2.914
				C118.796,36.615,119.338,36.615,120.525,36.615z"/>
			<rect x="95.121" y="44.644" fill="#618097" width="7.143" height="7.146"/>
			<path fill="#618097" d="M111.705,45.391c0,0.854,0,4.793,0,5.649c-0.858,0-4.791,0-5.649,0c0-0.857,0-4.795,0-5.649
				C106.914,45.391,110.847,45.391,111.705,45.391z"/>
			<path fill="#618097" d="M120.9,46.382c0,1.296,0,2.37,0,3.663c-1.296,0-2.368,0-3.664,0c0-1.293,0-2.367,0-3.663
				C118.532,46.382,119.604,46.382,120.9,46.382z"/>
			<path fill="#618097" d="M99.589,57.462c0,0.831,0,0.958,0,1.789c-0.834,0-0.959,0-1.796,0c0-0.831,0-0.958,0-1.789
				C98.629,57.462,98.754,57.462,99.589,57.462z"/>
			<path fill="#618097" d="M110.586,56.656c0,1.268,0,2.134,0,3.403c-1.272,0-2.138,0-3.408,0c0-1.27,0-2.136,0-3.403
				C108.448,56.656,109.313,56.656,110.586,56.656z"/>
			<path fill="#618097" d="M119.656,57.772c0,0.565,0,0.603,0,1.169c-0.567,0-0.603,0-1.174,0c0-0.566,0-0.604,0-1.169
				C119.053,57.772,119.088,57.772,119.656,57.772z"/>
			<path fill="#618097" d="M109.465,67.975c0,0.568,0,0.602,0,1.176c-0.567,0-0.602,0-1.17,0c0-0.574,0-0.607,0-1.176
				C108.863,67.975,108.898,67.975,109.465,67.975z"/>
			<rect x="53.018" y="53.462" fill="#618097" width="9.792" height="9.788"/>
		</g>
	</g>
</g>
</svg>
